<svg width="482" height="482" xmlns="http://www.w3.org/2000/svg" xmlns:xlink="http://www.w3.org/1999/xlink" overflow="hidden"><defs><clipPath id="clip0"><rect x="-1" y="-1" width="482" height="482"/></clipPath><clipPath id="clip1"><rect x="92" y="90" width="296" height="300"/></clipPath><clipPath id="clip2"><rect x="92" y="90" width="296" height="301"/></clipPath><clipPath id="clip3"><rect x="92" y="90" width="296" height="301"/></clipPath></defs><g clip-path="url(#clip0)" transform="translate(1 1)"><path d="M0 240C-3.05552e-14 107.452 107.452-3.05552e-14 240-6.11104e-14 372.548-1.22221e-13 480 107.452 480 240 480 372.548 372.548 480 240 480 107.452 480-1.52776e-13 372.548 0 240Z" fill="#1BC56A" fill-rule="evenodd"/><g clip-path="url(#clip1)"><g clip-path="url(#clip2)"><g clip-path="url(#clip3)"><path d="M78.602 296.564C58.5592 296.564 38.7226 286.623 19.6304 267.015L13.7436 260.922 22.2303 261.174C22.2303 261.174 23.1465 261.174 24.6583 261.174 42.9831 261.174 57.3108 257.967 60.1626 253.157 60.6551 252.344 61.1361 250.981 59.9336 248.416 42.8228 234.741 31.3011 223.471 22.4937 211.938 11.201 197.198 5.07368 182.355 3.72223 166.607 1.1453 136.657 16.0342 103.409 49.351 65.0989L44.1857 62.0753C27.1665 51.5385 17.3055 40.1428 14.8202 28.3004 13.2306 20.3881 14.9571 12.1701 19.5961 5.56616 20.505 4.23319 22.0142 3.43575 23.6275 3.4359 25.9389 3.41142 27.9424 5.03058 28.4035 7.29556 29.2166 11.1781 36.3404 13.7665 47.4498 14.2246 56.2457 14.5911 62.9343 17.6605 67.3551 23.2267 71.776 28.7929 72.9327 36.1113 73.0015 41.4141 77.6049 38.7693 82.7899 37.302 88.0965 37.1421 94.0063 37.1421 102.481 39.4327 109.227 50.3474 116.695 62.4189 121.654 63.7245 123.452 63.7245 123.841 63.7266 124.228 63.6647 124.597 63.5413 125.075 63.3909 125.573 63.3136 126.075 63.3122 128.782 63.3375 130.956 65.5525 130.931 68.2597 130.924 68.9949 130.752 69.7191 130.427 70.3787 127.335 76.655 119.627 87.1803 102.756 87.1803 93.1587 87.1803 81.8661 83.6069 69.1991 76.7351L63.3008 73.2992C60.2199 85.8403 58.8799 101.371 66.6679 111.724 72.6808 119.672 83.6069 123.692 99.2288 123.692 108.926 123.53 118.581 122.379 128.045 120.257 133.496 119.111 138.02 118.275 142.269 117.599 149.336 116.454 157.227 114.942 165.576 113.316 186.707 109.216 210.644 104.554 232.004 104.554 257.773 104.554 274.861 111.426 284.275 125.548 287.904 131.13 290.13 137.507 290.757 144.136 291.078 147.205 291.33 150.378 291.525 153.848 293.667 193.327 283.256 226.38 261.403 249.446 239.368 272.753 206.154 285.581 168.05 285.581L168.05 285.581C165.404 285.581 162.701 285.512 160.033 285.386 147.429 284.774 134.926 282.832 122.73 279.591 116.571 284.677 109.678 288.805 102.287 291.834 94.7709 294.924 86.7281 296.53 78.602 296.564Z" fill="#241F20" transform="matrix(1.00196 0 0 1 92.0981 90)"/><path d="M23.6275 6.8718C24.3134 6.85972 24.9081 7.3433 25.0363 8.0171 25.8265 11.7966 30.11 16.9734 47.3124 17.6834 74.7996 18.8287 69.0731 48.1828 69.0731 48.1828 69.0731 48.1828 77.8804 40.578 88.0965 40.578 94.2239 40.578 100.844 43.3382 106.307 52.157 113.774 64.2285 119.581 67.1604 123.486 67.1604 124.233 67.1605 124.974 67.0446 125.685 66.8168 125.826 66.7718 125.973 66.7486 126.12 66.7481 126.936 66.7808 127.57 67.4682 127.537 68.2835 127.529 68.4859 127.48 68.6845 127.392 68.8669 124.597 74.5132 117.76 83.7558 102.802 83.7558 94.7851 83.7558 84.317 81.0758 70.8941 73.7001L61.1819 67.9736C54.5392 90.8452 51.5385 127.128 99.2288 127.128 109.163 126.999 119.056 125.847 128.755 123.692 133.416 122.719 138.1 121.814 142.808 121.07 167.752 117.13 202.581 108.071 231.981 108.071 253.18 108.071 271.574 112.778 281.389 127.541 284.721 132.651 286.757 138.497 287.322 144.571 287.654 147.824 287.894 151.008 288.077 154.135 292.945 243.857 232.84 282.202 168.05 282.202 165.439 282.202 162.819 282.137 160.193 282.007 147.244 281.374 134.403 279.316 121.906 275.869 115.654 281.193 108.6 285.495 101.004 288.616 93.8962 291.542 86.2885 293.063 78.602 293.094 62.2127 293.094 42.9373 285.993 22.0928 264.576 22.0928 264.576 23.032 264.576 24.624 264.576 34.8171 264.576 71.8676 263.431 62.625 246.182 9.94121 204.219-27.1207 156.288 54.6766 64.1597L45.9265 59.109C8.79591 36.0312 16.939 15.5188 22.425 7.50172 22.6986 7.10761 23.1478 6.87234 23.6275 6.8718M23.6275 0 23.6275 0C20.8801-0.00123466 18.309 1.35292 16.7557 3.61915 11.5726 10.9897 9.65456 20.1698 11.453 28.999 14.1445 41.8035 24.5209 53.8978 42.2959 64.95L42.3761 64.95 42.4563 64.95 44.0597 65.8891C12.0257 103.73-2.2906 136.806 0.297778 166.905 1.7065 183.317 8.06292 198.755 19.7679 214.08 28.5982 225.681 40.1428 236.986 57.1047 250.603 57.2059 250.855 57.2602 251.122 57.265 251.393 57.0703 251.978 54.4247 254.486 44.9416 256.181 38.2404 257.276 31.4596 257.808 24.6698 257.773 23.2496 257.773 22.3792 257.773 22.3792 257.773L5.40582 257.269 17.1795 269.409C36.9359 289.704 57.6086 300 78.6134 300 87.1822 299.967 95.6639 298.28 103.592 295.029 110.755 292.089 117.47 288.161 123.544 283.359 135.44 286.394 147.61 288.224 159.872 288.822 162.61 288.948 165.358 289.017 168.061 289.017 207.15 289.017 241.177 275.811 263.889 251.84 274.955 240.065 283.274 225.984 288.249 210.609 293.827 193.773 296.083 174.635 294.949 153.745 294.743 150.206 294.491 146.976 294.17 143.85 293.483 136.657 291.058 129.74 287.104 123.692 277.014 108.529 258.987 101.164 231.981 101.164 210.312 101.164 186.169 105.849 164.923 109.995 156.597 111.61 148.74 113.144 141.731 114.255 137.425 114.931 132.843 115.79 127.346 116.935 118.111 118.996 108.69 120.108 99.2288 120.257 84.7751 120.257 74.7423 116.672 69.451 109.582 65.7173 104.612 62.3731 95.3348 65.6601 78.5562L67.4238 79.5869 67.504 79.5869 67.5842 79.5869C80.7551 86.8252 92.609 90.4902 102.802 90.4902 116.546 90.4902 127.69 83.6184 133.553 71.776 135.584 67.6359 133.874 62.6337 129.734 60.6032 128.609 60.0513 127.373 59.7598 126.12 59.7503 125.27 59.753 124.424 59.8842 123.612 60.1397 123.571 60.1499 123.528 60.1499 123.486 60.1397 122.089 60.1397 117.932 57.6773 112.182 48.3889 104.6 36.1342 94.9225 33.5688 88.1309 33.5L88.1309 33.5C84.0162 33.5535 79.9482 34.3811 76.1396 35.9395 75.502 30.4736 73.4141 25.2777 70.0924 20.8903 65.0302 14.4651 57.4941 10.9949 47.6445 10.5826 35.1951 10.3077 31.9195 7.29556 31.7706 6.58548 30.9775 2.7272 27.5664-0.0314411 23.6275 0Z" fill="#F2F2F2" transform="matrix(1.00196 0 0 1 92.0981 90)"/><path d="M164.328 273.108C152.657 272.535 141.085 270.679 129.82 267.577 221.776 232.679 196.831 195.09 221.524 164.122 238.463 142.865 264.771 150.779 279.602 157.845 284.161 241.979 225.349 276.017 164.328 273.108Z" fill="#FFFFFF" transform="matrix(1.00196 0 0 1 92.0981 90)"/><path d="M180.213 143.792C183.138 143.776 185.977 144.79 188.23 146.656 190.679 142.227 189.074 136.653 184.645 134.204 180.218 131.755 174.642 133.36 172.194 137.789 171.468 139.102 171.075 140.574 171.051 142.075 171.038 143.681 171.453 145.263 172.253 146.656 174.491 144.803 177.307 143.789 180.213 143.792Z" fill="#FFFFFF" transform="matrix(1.00196 0 0 1 92.0981 90)"/></g></g></g></g></svg>